<?xml version="1.0" encoding="utf-8"?>
<!-- Generator: Adobe Illustrator 15.1.0, SVG Export Plug-In . SVG Version: 6.00 Build 0)  -->
<!DOCTYPE svg PUBLIC "-//W3C//DTD SVG 1.1//EN" "http://www.w3.org/Graphics/SVG/1.1/DTD/svg11.dtd">
<svg version="1.1" id="Layer_1" xmlns="http://www.w3.org/2000/svg" xmlns:xlink="http://www.w3.org/1999/xlink" x="0px" y="0px"
	 width="181.85px" height="44.953px" viewBox="0 0 181.85 44.953" enable-background="new 0 0 181.85 44.953" xml:space="preserve">
<rect x="-56.872" y="-34.852" display="none" fill="#4D326E" width="213" height="112"/>
<g>
	
		<image overflow="visible" opacity="0.26" enable-background="new    " width="98" height="98" xlink:href="8AEB4BC5.png"  transform="matrix(0.9898 0 0 0.9898 -15.8718 -17.8516)">
	</image>
	<g>
		<g>
			<g>
				<g>
					<path fill="#4D326E" d="M22.578,7.278c7.89,0,14.318,6.42,14.318,14.31c0,7.891-6.43,14.32-14.318,14.32
						c-7.892,0-14.312-6.43-14.312-14.32C8.268,13.698,14.688,7.278,22.578,7.278z"/>
					<path fill="#4D326E" d="M37.998,21.588c0,8.51-6.92,15.419-15.42,15.419s-15.42-6.909-15.42-15.419
						c0-8.5,6.92-15.42,15.42-15.42S37.998,13.088,37.998,21.588z M22.578,35.908c7.89,0,14.318-6.43,14.318-14.32
						c0-7.89-6.43-14.31-14.318-14.31c-7.892,0-14.312,6.42-14.312,14.31C8.268,29.479,14.688,35.908,22.578,35.908z"/>
				</g>
			</g>
			<path fill="#FFFFFF" d="M26.618,13.896c-0.218-0.215-0.564-0.215-0.781,0l-7.69,7.692l7.69,7.697
				c0.106,0.107,0.247,0.16,0.39,0.16c0.145,0,0.285-0.053,0.393-0.16c0.216-0.217,0.216-0.564,0-0.783l-6.907-6.914l6.907-6.909
				C26.834,14.463,26.834,14.112,26.618,13.896"/>
		</g>
	</g>
</g>
<path fill="#FFFFFF" d="M22.581,6.169c-8.504,0-15.424,6.916-15.424,15.418c0,8.506,6.92,15.424,15.424,15.424
	C31.083,37.012,38,30.093,38,21.587C38,13.085,31.083,6.169,22.581,6.169 M22.581,35.906c-7.895,0-14.317-6.426-14.317-14.319
	c0-7.89,6.424-14.31,14.317-14.31c7.89,0,14.312,6.42,14.312,14.31C36.895,29.48,30.471,35.906,22.581,35.906"/>
</svg>
