<?xml version="1.0" encoding="utf-8"?>
<!-- Generator: Adobe Illustrator 15.1.0, SVG Export Plug-In . SVG Version: 6.00 Build 0)  -->
<!DOCTYPE svg PUBLIC "-//W3C//DTD SVG 1.1//EN" "http://www.w3.org/Graphics/SVG/1.1/DTD/svg11.dtd">
<svg version="1.1" id="Layer_1" xmlns="http://www.w3.org/2000/svg" xmlns:xlink="http://www.w3.org/1999/xlink" x="0px" y="0px"
	 width="1605.161px" height="1074.107px" viewBox="0 0 1605.161 1074.107" enable-background="new 0 0 1605.161 1074.107"
	 xml:space="preserve">
<linearGradient id="SVGID_1_" gradientUnits="userSpaceOnUse" x1="-26.4507" y1="595.0459" x2="-26.3908" y2="-434.9316" gradientTransform="matrix(1 0 0 1 829 479.1074)">
	<stop  offset="0" style="stop-color:#864587"/>
	<stop  offset="1" style="stop-color:#4D326E"/>
</linearGradient>
<path fill="url(#SVGID_1_)" d="M0,0h1605.161v1074.107H0V0z"/>
<path fill="#4C3172" stroke="#FFFFFF" stroke-width="4" stroke-miterlimit="10" d="M216.722,68.798
	c1.185,1.355,2.812,2.194,4.606,2.194s3.428-0.839,4.606-2.194c1.181-1.354,1.908-3.229,1.908-5.297s-0.729-3.941-1.908-5.296
	c-1.182-1.354-2.812-2.195-4.606-2.195s-3.427,0.841-4.606,2.195c-1.177,1.354-1.904,3.228-1.904,5.296
	C214.818,65.567,215.545,67.442,216.722,68.798"/>
<path fill="#FFFFFF" d="M211.748,71.29l-0.415-2.155c-0.124-0.62-0.538-0.829-1.118-0.704c-0.332,0.084-0.828,0.125-1.201,0.125
	c-0.83,0-1.326-0.496-1.326-1.615V56.158h2.484c0.582,0,1.037-0.457,1.037-1.03v-1.574c0-0.57-0.455-1.07-1.037-1.07h-2.484v-5.258
	c0-0.871-0.457-1.242-1.281-1.036l-2.611,0.621c-0.662,0.166-0.869,0.746-0.869,1.45v4.229h-2.154c-0.578,0-1.035,0.5-1.035,1.07
	v1.571c0,0.573,0.457,1.03,1.035,1.03h2.152V68.1c0,3.023,1.326,4.768,4.604,4.768c1.285,0,2.646-0.208,3.521-0.498
	C211.581,72.202,211.829,71.831,211.748,71.29 M198.486,66.733c0-3.273-2.443-4.896-4.683-6.096
	c-1.782-0.959-3.396-1.748-3.396-2.947c0-0.991,0.663-1.783,2.03-1.783c1.366,0,2.527,0.541,3.355,0.832
	c0.541,0.207,1.037-0.124,1.244-0.705l0.58-1.649c0.207-0.54-0.166-1.036-0.705-1.245c-1.657-0.691-2.776-0.904-4.807-0.904
	c-4.226,0-6.505,2.438-6.505,5.746c0,2.826,2.153,4.316,4.227,5.479c1.946,1.075,3.852,1.989,3.852,3.562
	c0,1.117-0.662,1.74-2.195,1.74c-1.574,0-3.108-0.539-4.557-1.121c-0.625-0.244-1.038,0.086-1.245,0.707l-0.664,2.03
	c-0.166,0.536,0.043,0.995,0.622,1.244c1.699,0.702,3.978,1.241,6.009,1.241C196.498,72.865,198.486,69.841,198.486,66.733z
	 M181.081,71.578V53.554c0-0.58-0.455-1.076-1.036-1.076h-2.693c-0.58,0-1.037,0.455-1.037,1.037v18.063
	c0,0.581,0.458,1.038,1.037,1.038h2.693C180.625,72.616,181.081,72.159,181.081,71.578z M181.538,45.929
	c0-1.659-1.241-3.024-2.898-3.024c-1.658,0-2.861,1.365-2.861,3.024c0,1.657,1.203,2.984,2.861,2.984
	C180.295,48.913,181.538,47.586,181.538,45.929z M173.25,71.29l-0.333-2.195c-0.084-0.621-0.456-0.83-1.117-0.707
	c-0.376,0.086-0.954,0.168-1.328,0.168c-0.747,0-0.911-0.541-0.911-1.615V44.232c0-0.581-0.457-1.038-1.035-1.038h-2.695
	c-0.581,0-1.036,0.457-1.036,1.038v23.951c0,2.9,1.242,4.686,4.516,4.686c1.327,0,2.404-0.208,3.316-0.539
	C173.126,72.118,173.333,71.788,173.25,71.29z M156.094,60.558h-5.927c0.25-2.855,1.288-4.559,3.068-4.559
	C155.39,55.999,155.97,58.239,156.094,60.558z M160.902,62.711c0-7.084-2.779-10.481-7.792-10.481c-4.93,0-7.955,4.145-7.955,10.234
	c0,6.96,3.315,10.401,8.785,10.401c2.609,0,4.228-0.33,5.883-1.077c0.498-0.21,0.829-0.62,0.622-1.201l-0.703-1.99
	c-0.165-0.496-0.497-0.914-1.161-0.662c-1.162,0.416-2.279,0.785-3.894,0.785c-3.481,0-4.312-1.863-4.52-4.972h9.698
	C160.445,63.748,160.902,63.294,160.902,62.711z M143.952,71.415l-6.381-10.318L143,53.679c0.415-0.539,0.124-1.201-0.497-1.201
	h-3.564c-0.664,0-1.118,0.33-1.45,0.871l-4.393,7.125V44.233c0-0.581-0.456-1.038-1.036-1.038h-2.694
	c-0.579,0-1.036,0.457-1.036,1.038v27.346c0,0.581,0.457,1.038,1.036,1.038h2.694c0.581,0,1.036-0.457,1.036-1.038V62.38
	l5.014,9.284c0.331,0.622,0.829,0.952,1.45,0.952h3.812C143.995,72.616,144.285,71.955,143.952,71.415z"/>
<path fill="none" stroke="#FFFFFF" stroke-width="2" stroke-miterlimit="10" d="M263.086,38.992l-0.063,6.852l-0.012,1.321
	l-0.008,0.798l-0.018,1.866l-0.021,2.026c-0.009,1.091-0.795,2.423-1.744,2.958l-6.312,3.564l-4.666,2.641l-0.218,0.123l-0.31,0.146
	c-0.187,0.075-0.393,0.136-0.604,0.174c-0.855,0.167-1.844,0.048-2.521-0.353l-11.08-6.534c-0.939-0.552-1.701-1.899-1.689-2.99
	l0.119-12.862c0.012-1.091,0.793-2.424,1.744-2.959l11.2-6.328c0.947-0.54,2.495-0.523,3.437,0.028l11.08,6.538
	C262.336,36.552,263.095,37.902,263.086,38.992z"/>
<path fill="#FFFFFF" d="M245.388,49.109c0.01,0.14-0.005,0.258-0.029,0.376c-0.271-0.013-0.551-0.003-0.861,0.022
	c-0.744,0.059-1.459,0.187-2.951,0.552c-0.355-0.1-0.771-0.453-1.113-0.941c0.246-0.721,0.799-2.028,1.467-4.645
	c0.438-1.706,0.562-2.442,0.802-4.182c0.627,0.08,1.082,0.359,1.55,0.941c-0.199,0.414-0.701,1.928-1.264,3.833
	c-0.539,1.868-1.084,3.397-1.062,3.852c0.486-0.062,0.75-0.129,1.445-0.361c0.615-0.2,0.973-0.288,1.652-0.389
	C245.244,48.489,245.364,48.807,245.388,49.109z M250.673,44.066c-0.523,1.353-0.845,2.759-0.781,3.548
	c0.033,0.431,0.15,0.726,0.371,0.825c-0.179,0.133-0.509,0.251-0.74,0.27c-0.418,0.034-0.647-0.229-0.693-0.809
	c-0.035-0.431,0.064-1.07,0.298-1.85c-0.519,1.468-1.442,2.713-2.153,2.886c-0.572,0.022-1.018-0.527-1.078-1.33
	c-0.142-1.733,1.349-4.238,2.599-4.409c0.319,0.058,0.886,0.562,0.944,0.851c-1.229,0.295-2.586,2.477-2.477,3.906
	c0.018,0.163,0.077,0.239,0.188,0.266c0.445-0.128,0.951-0.825,1.68-2.288c0.281-0.572,0.676-1.48,0.958-2.204
	C250.107,43.702,250.673,43.914,250.673,44.066z M255.288,43.196c-0.007-0.082-0.083-0.159-0.166-0.175
	c-0.649,0.074-2.728,3.939-2.752,5.11c-0.069,0.005-0.159-0.08-0.216-0.217c-0.029-0.068-0.105-0.143-0.289-0.256
	c-0.087-0.053-0.188-0.151-0.217-0.207c-0.039-0.066-0.062-0.146-0.069-0.299c-0.222-2.767,1.603-8.071,3.039-8.83
	c0.31,0.07,0.981,0.415,1.183,0.608c-1.587,1.507-2.668,3.793-3.225,6.786c0.742-1.686,2.02-3.285,2.67-3.337
	c0.51,0.088,1.006,0.586,1.12,1.128c0.11,1.98-1.616,4.972-2.918,5.076c-0.361,0.028-0.841-0.122-0.854-0.271
	C253.958,47.232,255.16,44.96,255.288,43.196L255.288,43.196z"/>
</svg>
