<svg xmlns="http://www.w3.org/2000/svg" width="828.903" height="554.668" viewBox="0 -9.001 828.903 554.668" enable-background="new 0 -9.001 828.903 554.668"><linearGradient id="a" gradientUnits="userSpaceOnUse" x1="-829.065" y1="1064.524" x2="-829.034" y2="1596.404" gradientTransform="matrix(1 0 0 -1 1243.5 1610.215)"><stop offset="0" stop-color="#864587"/><stop offset="1" stop-color="#4D326E"/></linearGradient><path fill="url(#a)" d="M0-9.001h828.903v554.668h-828.903v-554.668z"/><path fill="#4C3172" stroke="#fff" stroke-width="2.066" stroke-miterlimit="10" d="M55.111 26.01c.612.7 1.452 1.133 2.378 1.133s1.77-.434 2.378-1.133c.61-.699.985-1.667.985-2.735s-.376-2.035-.985-2.735c-.61-.699-1.452-1.134-2.378-1.134s-1.77.435-2.378 1.134c-.608.699-.983 1.667-.983 2.735 0 1.067.375 2.035.983 2.735"/><path fill="#fff" d="M52.542 27.297l-.214-1.113c-.064-.32-.278-.428-.577-.363-.171.043-.428.064-.62.064-.429 0-.685-.256-.685-.834v-5.568h1.283c.301 0 .536-.236.536-.532v-.812c0-.295-.235-.553-.536-.553h-1.283v-2.715c0-.45-.236-.642-.661-.535l-1.349.321c-.342.086-.449.385-.449.749v2.184h-1.112c-.298 0-.535.258-.535.553v.811c0 .296.236.532.535.532h1.111v6.166c0 1.561.685 2.462 2.377 2.462.664 0 1.366-.107 1.818-.257.276-.089.403-.28.361-.56m-6.848-2.353c0-1.69-1.261-2.528-2.418-3.148-.92-.495-1.753-.902-1.753-1.522 0-.511.342-.92 1.048-.92.705 0 1.305.279 1.732.43.279.106.536-.064.643-.364l.3-.852c.107-.279-.086-.535-.364-.643-.856-.357-1.434-.467-2.482-.467-2.183 0-3.359 1.259-3.359 2.967 0 1.459 1.112 2.229 2.183 2.83 1.005.555 1.989 1.027 1.989 1.839 0 .577-.341.898-1.133.898-.812 0-1.605-.278-2.353-.579-.323-.126-.536.044-.643.365l-.343 1.048c-.086.277.022.514.321.643.877.363 2.054.641 3.103.641 2.502 0 3.529-1.561 3.529-3.166zm-8.988 2.502v-9.307c0-.3-.235-.556-.535-.556h-1.391c-.299 0-.535.235-.535.536v9.328c0 .3.236.536.535.536h1.391c.3-.001.535-.237.535-.537zm.236-13.245c0-.857-.641-1.562-1.497-1.562-.856 0-1.478.705-1.478 1.562 0 .855.621 1.541 1.478 1.541.855 0 1.497-.685 1.497-1.541zm-4.28 13.096l-.172-1.134c-.043-.321-.235-.428-.577-.365-.194.044-.493.086-.686.086-.386 0-.47-.279-.47-.834v-11.726c0-.3-.236-.536-.535-.536h-1.392c-.3 0-.535.236-.535.536v12.369c0 1.498.642 2.42 2.332 2.42.686 0 1.242-.107 1.712-.279.259-.109.366-.28.323-.537zm-8.859-5.542h-3.061c.129-1.475.665-2.354 1.584-2.354 1.113 0 1.413 1.157 1.477 2.354zm2.483 1.112c0-3.658-1.435-5.413-4.024-5.413-2.545 0-4.108 2.141-4.108 5.285 0 3.594 1.712 5.371 4.537 5.371 1.347 0 2.184-.17 3.038-.556.257-.108.428-.32.321-.62l-.363-1.027c-.085-.256-.257-.472-.6-.342-.6.215-1.177.405-2.011.405-1.797 0-2.227-.962-2.334-2.567h5.008c.3-.001.536-.235.536-.536zm-8.753 4.495l-3.295-5.328 2.804-3.831c.214-.278.064-.621-.256-.621h-1.841c-.343 0-.577.17-.749.45l-2.269 3.679v-8.387c0-.3-.235-.536-.535-.536h-1.392c-.299 0-.535.236-.535.536v14.121c0 .3.236.536.535.536h1.391c.3 0 .535-.236.535-.536v-4.75l2.589 4.794c.171.321.428.492.749.492h1.969c.322.001.472-.34.3-.619z"/><path stroke="#fff" stroke-width="1.033" stroke-miterlimit="10" d="M79.053 10.619l-.032 3.538-.006.682-.004.412-.01.964-.011 1.046c-.004.563-.41 1.251-.9 1.528l-3.259 1.84-2.41 1.364-.113.063-.16.076-.312.09c-.441.086-.952.024-1.302-.183l-5.722-3.374c-.484-.285-.878-.98-.872-1.544l.062-6.642c.006-.563.41-1.251.901-1.528l5.783-3.268c.489-.279 1.289-.271 1.775.014l5.721 3.376c.484.285.876.983.871 1.546z" fill="none"/><path fill="#fff" d="M69.914 15.843l-.015.194c-.14-.007-.284-.001-.444.011-.384.031-.753.097-1.524.285-.183-.052-.398-.234-.575-.486.127-.373.413-1.047.757-2.398.227-.881.291-1.261.415-2.16.324.042.559.186.8.486-.103.214-.362.996-.653 1.979-.278.965-.56 1.754-.548 1.989.251-.032.387-.066.746-.186.317-.104.502-.149.853-.201.114.167.176.331.188.487zm2.729-2.604c-.27.699-.436 1.425-.403 1.833.017.222.077.375.191.426-.092.069-.263.129-.382.139-.216.018-.334-.118-.357-.417-.019-.223.033-.553.154-.956-.268.758-.745 1.401-1.112 1.491-.295.011-.526-.272-.557-.687-.074-.895.696-2.188 1.342-2.277.165.03.458.29.488.439-.635.152-1.335 1.279-1.279 2.017.009.084.04.124.097.137.23-.066.491-.426.868-1.182.145-.295.349-.764.495-1.138.163-.013.455.096.455.175zm2.383-.449l-.085-.09c-.335.038-1.409 2.034-1.421 2.639-.036.002-.082-.042-.111-.112l-.149-.132-.112-.107-.036-.155c-.115-1.429.828-4.167 1.569-4.56.16.036.506.214.611.314-.82.778-1.378 1.959-1.666 3.504.383-.871 1.043-1.696 1.379-1.723.263.045.52.302.579.583.057 1.022-.835 2.567-1.507 2.621-.187.015-.435-.063-.441-.14.704-.558 1.324-1.732 1.39-2.642z"/></svg>