<?xml version="1.0" encoding="utf-8"?>
<!-- Generator: Adobe Illustrator 15.1.0, SVG Export Plug-In . SVG Version: 6.00 Build 0)  -->
<!DOCTYPE svg PUBLIC "-//W3C//DTD SVG 1.1//EN" "http://www.w3.org/Graphics/SVG/1.1/DTD/svg11.dtd">
<svg version="1.1" id="Layer_1" xmlns="http://www.w3.org/2000/svg" xmlns:xlink="http://www.w3.org/1999/xlink" x="0px" y="0px"
	 width="303px" height="330px" viewBox="0 0 303 330" enable-background="new 0 0 303 330" xml:space="preserve">
<g opacity="0.72">
	
		<image overflow="visible" opacity="0.26" width="303" height="330" xlink:href="52B48E4D.png"  transform="matrix(1 0 0 1 -9.4771 -8.5)">
	</image>
	<g>
		<path fill="#854787" d="M223.09,57.698l-90.313-52.14c-7.602-4.389-20.042-4.389-27.644,0l-90.311,52.14
			C7.219,62.088,1,72.861,1,81.641V129.6v56.322c0,8.779,6.219,19.553,13.822,23.943l90.305,52.137l0.006,0.002
			c7.603,4.391,20.042,4.391,27.644,0l90.313-52.139c7.602-4.391,13.822-15.164,13.822-23.943V81.641
			C236.912,72.861,230.691,62.088,223.09,57.698z"/>
	</g>
</g>
<path fill="#FFFFFF" d="M38.941,60.577c2.662,0,4.823-2.156,4.823-4.814c0-2.658-2.161-4.81-4.823-4.81
	c-2.654,0-4.805,2.152-4.805,4.81C34.137,58.421,36.287,60.577,38.941,60.577"/>
<path fill="#FFFFFF" d="M221.568,25.74H19.38c-2.044,0-3.747,1.699-3.747,3.764v202.174c0,2.076,1.703,3.756,3.747,3.756h202.188
	c2.062,0,3.764-1.68,3.764-3.756V29.504C225.332,27.438,223.631,25.74,221.568,25.74 M217.803,76.265H23.145V33.266h194.658V76.265z
	 M23.145,83.785h194.658v144.129H23.145V83.785z"/>
<path fill="#FFFFFF" d="M77.148,60.728c2.733,0,4.948-2.23,4.948-4.965c0-2.736-2.215-4.953-4.948-4.953
	c-2.734,0-4.967,2.217-4.967,4.953C72.182,58.498,74.414,60.728,77.148,60.728"/>
<path fill="#FFFFFF" d="M57.982,60.728c2.733,0,4.948-2.23,4.948-4.965c0-2.736-2.215-4.953-4.948-4.953
	c-2.744,0-4.967,2.217-4.967,4.953C53.016,58.498,55.238,60.728,57.982,60.728"/>
<g>
	<g>
		<path fill="#FFFFFF" d="M99.25,143.171c-0.189,0.097-0.409,0.134-0.63,0.099l-17.366-2.758l-7.994,15.663
			c-0.203,0.4-0.639,0.622-1.081,0.55c-0.44-0.069-0.786-0.415-0.857-0.858l-2.739-17.368l-17.365-2.758
			c-0.441-0.07-0.787-0.416-0.856-0.857c-0.07-0.44,0.152-0.877,0.55-1.08l15.673-7.976l-2.743-17.366
			c-0.07-0.441,0.152-0.878,0.551-1.081l0,0c0.398-0.202,0.882-0.125,1.197,0.19l12.424,12.44l15.673-7.976
			c0.398-0.203,0.882-0.126,1.197,0.19c0.315,0.315,0.392,0.799,0.188,1.196l-7.989,15.661l12.428,12.44
			c0.315,0.316,0.392,0.799,0.188,1.196C99.599,142.919,99.439,143.075,99.25,143.171L99.25,143.171z M54.677,134.201l14.971,2.379
			c0.441,0.069,0.787,0.416,0.857,0.859l2.36,14.971l6.891-13.504c0.204-0.399,0.638-0.62,1.081-0.55l14.972,2.378l-10.713-10.723
			c-0.316-0.315-0.393-0.8-0.189-1.196l6.888-13.503l-13.513,6.876c-0.398,0.203-0.882,0.126-1.198-0.19l-10.71-10.725l2.365,14.972
			c0.07,0.441-0.152,0.878-0.55,1.08L54.677,134.201L54.677,134.201z"/>
	</g>
</g>
<g>
	<g>
		<path fill="#FFFFFF" d="M131.074,200.251c-0.159-0.022-0.312-0.095-0.434-0.212l-9.594-9.264l-11.777,6.26
			c-0.3,0.16-0.667,0.108-0.911-0.129c-0.244-0.234-0.308-0.6-0.159-0.906l5.848-11.984l-9.593-9.264
			c-0.244-0.234-0.308-0.6-0.159-0.904c0.147-0.305,0.476-0.479,0.811-0.433l13.208,1.856l5.845-11.984
			c0.148-0.305,0.476-0.48,0.812-0.433l0,0c0.336,0.048,0.604,0.306,0.662,0.639l2.312,13.132l13.208,1.857
			c0.335,0.047,0.603,0.305,0.661,0.639s-0.104,0.667-0.402,0.826l-11.773,6.26l2.315,13.135c0.059,0.334-0.104,0.666-0.403,0.824
			C131.4,200.246,131.234,200.273,131.074,200.251L131.074,200.251z M107.272,175.299l8.271,7.988
			c0.244,0.234,0.308,0.6,0.159,0.906l-5.042,10.33l10.154-5.396c0.3-0.16,0.666-0.108,0.91,0.127l8.271,7.987l-1.996-11.321
			c-0.06-0.334,0.104-0.668,0.402-0.826l10.151-5.397l-11.388-1.601c-0.336-0.047-0.603-0.305-0.661-0.639l-1.994-11.322
			l-5.039,10.333c-0.148,0.306-0.476,0.479-0.812,0.433L107.272,175.299L107.272,175.299z"/>
	</g>
</g>
<g>
	<g>
		<path fill="#FFFFFF" d="M178.918,152.639c-0.273,0.02-0.549-0.048-0.793-0.201l-19.09-12.012l-17.327,14.439
			c-0.441,0.37-1.066,0.412-1.551,0.104c-0.485-0.305-0.719-0.886-0.578-1.444l5.529-21.864l-19.088-12.011
			c-0.484-0.306-0.718-0.888-0.576-1.444c0.139-0.555,0.621-0.958,1.193-0.996l22.506-1.5l5.526-21.864
			c0.141-0.556,0.621-0.959,1.193-0.996l0,0c0.572-0.039,1.104,0.296,1.316,0.828l8.377,20.938l22.506-1.501
			c0.57-0.039,1.104,0.296,1.316,0.829c0.213,0.531,0.061,1.139-0.381,1.506l-17.322,14.438l8.383,20.94
			c0.213,0.533,0.059,1.14-0.383,1.506C179.455,152.519,179.189,152.621,178.918,152.639L178.918,152.639z M130.876,119.578
			l16.457,10.357c0.483,0.305,0.717,0.887,0.576,1.444l-4.768,18.846l14.938-12.449c0.441-0.366,1.064-0.409,1.551-0.103
			l16.457,10.355l-7.225-18.049c-0.213-0.531-0.061-1.141,0.381-1.506l14.934-12.45l-19.404,1.294
			c-0.572,0.037-1.102-0.297-1.316-0.829l-7.221-18.05l-4.764,18.848c-0.139,0.557-0.621,0.959-1.193,0.997L130.876,119.578
			L130.876,119.578z"/>
	</g>
</g>
</svg>
