<?xml version="1.0" encoding="utf-8"?>
<!-- Generator: Adobe Illustrator 15.1.0, SVG Export Plug-In . SVG Version: 6.00 Build 0)  -->
<!DOCTYPE svg PUBLIC "-//W3C//DTD SVG 1.1//EN" "http://www.w3.org/Graphics/SVG/1.1/DTD/svg11.dtd">
<svg version="1.1" id="Layer_1" xmlns="http://www.w3.org/2000/svg" xmlns:xlink="http://www.w3.org/1999/xlink" x="0px" y="0px"
	 width="38px" height="38px" viewBox="0 0 38 38" enable-background="new 0 0 38 38" xml:space="preserve">
<g>
	<g transform="translate(1 1)">
		<circle fill="none" stroke="#4D326E" stroke-width="2" stroke-opacity="0.5" cx="18" cy="18" r="18"/>
		<path fill="none" stroke="#4D326E" stroke-width="2" d="M36,18c0-9.94-8.061-18-18-18		">
<animateTransform  fill="remove" type="rotate" to="360 18 18" from="0 18 18" calcMode="linear" restart="always" dur="1s" attributeName="transform" additive="replace" accumulate="none" repeatCount="indefinite">
				</animateTransform>
		</path>
	</g>
	<path fill="#4D326E" d="M26.966,28.41l-4.917-7.951l4.184-5.716c0.318-0.415,0.097-0.926-0.383-0.926h-2.746
		c-0.512,0-0.861,0.255-1.119,0.67L18.6,19.979V7.463c0-0.447-0.351-0.799-0.798-0.799h-2.075c-0.447,0-0.799,0.352-0.799,0.799
		v21.075c0,0.446,0.352,0.798,0.799,0.798h2.075c0.447,0,0.798-0.352,0.798-0.798v-7.089l3.864,7.152
		c0.257,0.479,0.64,0.732,1.117,0.732h2.938C26.998,29.336,27.223,28.825,26.966,28.41z"/>
</g>
</svg>
