<?xml version="1.0" encoding="utf-8"?>
<!-- Generator: Adobe Illustrator 15.1.0, SVG Export Plug-In . SVG Version: 6.00 Build 0)  -->
<!DOCTYPE svg PUBLIC "-//W3C//DTD SVG 1.1//EN" "http://www.w3.org/Graphics/SVG/1.1/DTD/svg11.dtd">
<svg version="1.1" id="Layer_1" xmlns="http://www.w3.org/2000/svg" xmlns:xlink="http://www.w3.org/1999/xlink" x="0px" y="0px"
	 width="139.256px" height="45.297px" viewBox="0 0 139.256 45.297" enable-background="new 0 0 139.256 45.297"
	 xml:space="preserve">
<g>
	<path fill="#4C3172" stroke="#FFFFFF" stroke-width="4" stroke-miterlimit="10" d="M91.642,40.008
		c1.184,1.355,2.811,2.194,4.606,2.194s3.428-0.839,4.606-2.194c1.181-1.354,1.908-3.229,1.908-5.297s-0.729-3.941-1.908-5.296
		c-1.181-1.354-2.811-2.195-4.606-2.195s-3.427,0.841-4.606,2.195c-1.177,1.354-1.904,3.228-1.904,5.296
		C89.737,36.777,90.465,38.652,91.642,40.008"/>
	<path fill="#FFFFFF" d="M86.667,42.5l-0.415-2.155c-0.124-0.62-0.538-0.829-1.118-0.704c-0.332,0.084-0.828,0.125-1.201,0.125
		c-0.83,0-1.326-0.496-1.326-1.615V27.368h2.484c0.582,0,1.037-0.457,1.037-1.03v-1.574c0-0.57-0.455-1.07-1.037-1.07h-2.484v-5.259
		c0-0.871-0.457-1.242-1.282-1.036l-2.611,0.621c-0.662,0.166-0.869,0.746-0.869,1.45v4.229H75.69c-0.578,0-1.035,0.5-1.035,1.07
		v1.572c0,0.573,0.457,1.03,1.035,1.03h2.153v11.94c0,3.023,1.326,4.767,4.603,4.767c1.285,0,2.647-0.208,3.521-0.498
		C86.5,43.412,86.748,43.041,86.667,42.5 M73.405,37.943c0-3.273-2.443-4.895-4.683-6.096c-1.782-0.959-3.396-1.748-3.396-2.947
		c0-0.991,0.663-1.783,2.03-1.783c1.366,0,2.527,0.541,3.355,0.832c0.541,0.207,1.037-0.124,1.244-0.705l0.58-1.649
		c0.207-0.54-0.166-1.036-0.705-1.245c-1.657-0.692-2.776-0.904-4.807-0.904c-4.226,0-6.505,2.438-6.505,5.746
		c0,2.826,2.153,4.316,4.227,5.479c1.946,1.075,3.852,1.989,3.852,3.562c0,1.117-0.662,1.74-2.195,1.74
		c-1.574,0-3.108-0.539-4.557-1.121c-0.625-0.244-1.038,0.086-1.245,0.707l-0.664,2.03c-0.166,0.536,0.043,0.995,0.622,1.244
		c1.699,0.702,3.978,1.241,6.009,1.241C71.417,44.075,73.405,41.051,73.405,37.943z M56,42.788V24.764
		c0-0.58-0.455-1.076-1.036-1.076h-2.693c-0.58,0-1.037,0.455-1.037,1.037v18.063c0,0.581,0.458,1.038,1.037,1.038h2.693
		C55.545,43.826,56,43.369,56,42.788z M56.457,17.139c0-1.659-1.241-3.024-2.898-3.024c-1.658,0-2.861,1.365-2.861,3.024
		c0,1.657,1.203,2.984,2.861,2.984C55.215,20.123,56.457,18.796,56.457,17.139z M48.17,42.5l-0.333-2.195
		c-0.084-0.621-0.456-0.83-1.117-0.707c-0.376,0.086-0.954,0.168-1.328,0.168c-0.747,0-0.911-0.541-0.911-1.615V15.442
		c0-0.581-0.457-1.038-1.035-1.038h-2.695c-0.581,0-1.036,0.457-1.036,1.038v23.951c0,2.9,1.242,4.685,4.516,4.685
		c1.327,0,2.404-0.208,3.316-0.539C48.046,43.328,48.252,42.998,48.17,42.5z M31.013,31.768h-5.927
		c0.25-2.856,1.288-4.559,3.068-4.559C30.309,27.209,30.889,29.449,31.013,31.768z M35.822,33.921
		c0-7.084-2.779-10.481-7.792-10.481c-4.93,0-7.955,4.144-7.955,10.234c0,6.96,3.315,10.401,8.785,10.401
		c2.609,0,4.228-0.33,5.883-1.077c0.498-0.21,0.829-0.62,0.622-1.201l-0.703-1.99c-0.165-0.496-0.497-0.914-1.161-0.662
		c-1.162,0.416-2.279,0.785-3.894,0.785c-3.481,0-4.312-1.863-4.52-4.972h9.698C35.364,34.958,35.822,34.504,35.822,33.921z
		 M18.871,42.625L12.49,32.307l5.429-7.418c0.415-0.539,0.124-1.201-0.497-1.201h-3.564c-0.664,0-1.118,0.33-1.45,0.871
		l-4.393,7.125V15.443c0-0.581-0.456-1.038-1.036-1.038H4.285c-0.579,0-1.036,0.457-1.036,1.038v27.346
		c0,0.581,0.457,1.038,1.036,1.038h2.694c0.581,0,1.036-0.457,1.036-1.038V33.59l5.014,9.284c0.331,0.622,0.829,0.952,1.45,0.952
		h3.812C18.914,43.826,19.204,43.165,18.871,42.625z"/>
	<path fill="#FFFFFF" d="M-4,34.121"/>
</g>
<g>
	<g>
		<path fill="none" stroke="#FFFFFF" stroke-width="2" stroke-miterlimit="10" d="M138.006,10.202l-0.063,6.852l-0.012,1.321
			l-0.008,0.798l-0.018,1.866l-0.021,2.026c-0.009,1.091-0.795,2.423-1.745,2.958l-6.313,3.565l-4.666,2.64l-0.218,0.123
			c-0.096,0.056-0.199,0.103-0.309,0.146c-0.187,0.075-0.393,0.136-0.605,0.174c-0.855,0.167-1.844,0.048-2.521-0.353l-11.08-6.534
			c-0.939-0.552-1.701-1.899-1.689-2.99l0.119-12.862c0.011-1.091,0.793-2.424,1.744-2.959l11.2-6.328
			c0.947-0.54,2.495-0.523,3.437,0.028l11.08,6.538C137.256,7.762,138.015,9.112,138.006,10.202z"/>
	</g>
</g>
<g>
	<path fill="#FFFFFF" d="M120.308,20.319c0.01,0.14-0.005,0.258-0.029,0.376c-0.271-0.013-0.551-0.003-0.862,0.022
		c-0.744,0.059-1.459,0.187-2.951,0.552c-0.356-0.1-0.771-0.453-1.114-0.941c0.246-0.721,0.799-2.028,1.467-4.645
		c0.438-1.706,0.563-2.442,0.802-4.182c0.627,0.08,1.082,0.359,1.55,0.941c-0.2,0.414-0.701,1.928-1.264,3.833
		c-0.539,1.868-1.084,3.397-1.062,3.852c0.486-0.062,0.75-0.129,1.445-0.361c0.615-0.2,0.972-0.288,1.652-0.389
		C120.163,19.699,120.283,20.017,120.308,20.319z"/>
	<path fill="#FFFFFF" d="M125.593,15.276c-0.523,1.353-0.845,2.759-0.781,3.548c0.033,0.431,0.15,0.726,0.371,0.825
		c-0.179,0.133-0.509,0.251-0.74,0.27c-0.418,0.034-0.648-0.229-0.694-0.809c-0.035-0.431,0.065-1.07,0.298-1.85
		c-0.518,1.468-1.443,2.713-2.154,2.886c-0.572,0.022-1.017-0.527-1.078-1.33c-0.141-1.733,1.349-4.238,2.599-4.409
		c0.319,0.058,0.886,0.562,0.944,0.851c-1.229,0.295-2.586,2.477-2.476,3.906c0.017,0.163,0.077,0.239,0.187,0.266
		c0.445-0.128,0.951-0.825,1.68-2.288c0.281-0.572,0.676-1.48,0.958-2.204C125.026,14.912,125.593,15.124,125.593,15.276z"/>
	<path fill="#FFFFFF" d="M130.207,14.406c-0.007-0.082-0.083-0.159-0.166-0.175c-0.649,0.074-2.728,3.939-2.752,5.11
		c-0.069,0.005-0.159-0.08-0.216-0.217c-0.029-0.068-0.105-0.143-0.289-0.256c-0.087-0.053-0.188-0.151-0.217-0.207
		c-0.039-0.066-0.061-0.146-0.069-0.299c-0.222-2.767,1.603-8.071,3.039-8.83c0.31,0.07,0.981,0.415,1.183,0.608
		c-1.587,1.507-2.668,3.793-3.225,6.786c0.742-1.686,2.02-3.285,2.67-3.337c0.51,0.088,1.006,0.586,1.12,1.128
		c0.11,1.98-1.616,4.972-2.918,5.076c-0.361,0.028-0.841-0.122-0.853-0.271C128.878,18.442,130.079,16.17,130.207,14.406z"/>
</g>
</svg>
